<svg xmlns="http://www.w3.org/2000/svg" xmlns:xlink="http://www.w3.org/1999/xlink" width="400" zoomAndPan="magnify" viewBox="0 0 300 149.999998" height="200" preserveAspectRatio="xMidYMid meet" version="1.0"><defs><g/><clipPath id="00e2327c08"><path d="M 167 51 L 218 51 L 218 87 L 167 87 Z M 167 51 " clip-rule="nonzero"/></clipPath><clipPath id="fca9478f31"><path d="M 171.363281 15 L 244.4375 23.070312 L 237.179688 88.78125 L 164.105469 80.710938 Z M 171.363281 15 " clip-rule="nonzero"/></clipPath><clipPath id="0a87dc0611"><path d="M 171.363281 15 L 244.4375 23.070312 L 237.179688 88.78125 L 164.105469 80.710938 Z M 171.363281 15 " clip-rule="nonzero"/></clipPath><clipPath id="71b842239d"><path d="M 171.363281 15 L 244.4375 23.070312 L 237.179688 88.78125 L 164.105469 80.710938 Z M 171.363281 15 " clip-rule="nonzero"/></clipPath><clipPath id="2c48957af5"><path d="M 216 40 L 241 40 L 241 58 L 216 58 Z M 216 40 " clip-rule="nonzero"/></clipPath><clipPath id="608b8d6d5a"><path d="M 171.363281 15 L 244.4375 23.070312 L 237.179688 88.78125 L 164.105469 80.710938 Z M 171.363281 15 " clip-rule="nonzero"/></clipPath><clipPath id="af639c2d85"><path d="M 171.363281 15 L 244.4375 23.070312 L 237.179688 88.78125 L 164.105469 80.710938 Z M 171.363281 15 " clip-rule="nonzero"/></clipPath><clipPath id="e95858bcd9"><path d="M 171.363281 15 L 244.4375 23.070312 L 237.179688 88.78125 L 164.105469 80.710938 Z M 171.363281 15 " clip-rule="nonzero"/></clipPath><clipPath id="a5e97983c5"><path d="M 205 21 L 220 21 L 220 48 L 205 48 Z M 205 21 " clip-rule="nonzero"/></clipPath><clipPath id="e47609a241"><path d="M 171.363281 15 L 244.4375 23.070312 L 237.179688 88.78125 L 164.105469 80.710938 Z M 171.363281 15 " clip-rule="nonzero"/></clipPath><clipPath id="946420a141"><path d="M 171.363281 15 L 244.4375 23.070312 L 237.179688 88.78125 L 164.105469 80.710938 Z M 171.363281 15 " clip-rule="nonzero"/></clipPath><clipPath id="95c76662b6"><path d="M 171.363281 15 L 244.4375 23.070312 L 237.179688 88.78125 L 164.105469 80.710938 Z M 171.363281 15 " clip-rule="nonzero"/></clipPath><clipPath id="2092895d26"><path d="M 189 17 L 195 17 L 195 44 L 189 44 Z M 189 17 " clip-rule="nonzero"/></clipPath><clipPath id="a3bd8aa2db"><path d="M 171.363281 15 L 244.4375 23.070312 L 237.179688 88.78125 L 164.105469 80.710938 Z M 171.363281 15 " clip-rule="nonzero"/></clipPath><clipPath id="819d854c13"><path d="M 171.363281 15 L 244.4375 23.070312 L 237.179688 88.78125 L 164.105469 80.710938 Z M 171.363281 15 " clip-rule="nonzero"/></clipPath><clipPath id="8bcbb0d44e"><path d="M 171.363281 15 L 244.4375 23.070312 L 237.179688 88.78125 L 164.105469 80.710938 Z M 171.363281 15 " clip-rule="nonzero"/></clipPath><clipPath id="1b51f75ad6"><path d="M 223 69 L 239 69 L 239 73 L 223 73 Z M 223 69 " clip-rule="nonzero"/></clipPath><clipPath id="41f0e2b42c"><path d="M 171.363281 15 L 244.4375 23.070312 L 237.179688 88.78125 L 164.105469 80.710938 Z M 171.363281 15 " clip-rule="nonzero"/></clipPath><clipPath id="966057587b"><path d="M 171.363281 15 L 244.4375 23.070312 L 237.179688 88.78125 L 164.105469 80.710938 Z M 171.363281 15 " clip-rule="nonzero"/></clipPath><clipPath id="658535dcaa"><path d="M 171.363281 15 L 244.4375 23.070312 L 237.179688 88.78125 L 164.105469 80.710938 Z M 171.363281 15 " clip-rule="nonzero"/></clipPath><clipPath id="aed51d5761"><path d="M 172 28 L 179 28 L 179 45 L 172 45 Z M 172 28 " clip-rule="nonzero"/></clipPath><clipPath id="81fb928a51"><path d="M 171.363281 15 L 244.4375 23.070312 L 237.179688 88.78125 L 164.105469 80.710938 Z M 171.363281 15 " clip-rule="nonzero"/></clipPath><clipPath id="cd43633895"><path d="M 171.363281 15 L 244.4375 23.070312 L 237.179688 88.78125 L 164.105469 80.710938 Z M 171.363281 15 " clip-rule="nonzero"/></clipPath><clipPath id="c279a26330"><path d="M 171.363281 15 L 244.4375 23.070312 L 237.179688 88.78125 L 164.105469 80.710938 Z M 171.363281 15 " clip-rule="nonzero"/></clipPath></defs><g clip-path="url(#00e2327c08)"><g clip-path="url(#fca9478f31)"><g clip-path="url(#0a87dc0611)"><g clip-path="url(#71b842239d)"><path fill="#f4b536" d="M 169.082031 59.660156 C 176.398438 55.375 185.621094 53.660156 193.851562 56.0625 C 201.648438 58.34375 207.558594 64.371094 210.636719 71.582031 C 211.085938 72.648438 211.503906 73.710938 211.859375 74.808594 C 211.894531 74.902344 212.070312 75.476562 211.996094 75.214844 C 212.070312 75.488281 212.15625 75.769531 212.214844 76.042969 C 212.363281 76.597656 212.496094 77.164062 212.597656 77.730469 C 212.816406 78.859375 212.988281 79.996094 213.085938 81.128906 C 213.132812 81.65625 213.160156 82.199219 213.175781 82.738281 C 213.183594 83.09375 213.179688 82.4375 213.167969 82.808594 C 213.167969 82.960938 213.167969 83.09375 213.164062 83.242188 C 213.175781 83.691406 213.21875 84.101562 213.289062 84.542969 C 213.464844 85.515625 214.324219 86.253906 215.3125 86.214844 C 216.375 86.167969 217.035156 85.449219 217.25 84.441406 C 217.511719 83.289062 217.382812 82.050781 217.289062 80.875 C 217.199219 79.804688 217.0625 78.730469 216.867188 77.675781 C 216.453125 75.480469 215.828125 73.320312 214.996094 71.257812 C 213.410156 67.257812 210.871094 63.515625 207.820312 60.519531 C 204.589844 57.355469 200.761719 54.914062 196.460938 53.5 C 191.957031 52.03125 187.226562 51.554688 182.515625 52.078125 C 177.203125 52.671875 172.183594 54.523438 167.742188 57.496094 C 166.582031 58.292969 167.824219 60.386719 169.082031 59.660156 Z M 169.082031 59.660156 " fill-opacity="1" fill-rule="nonzero"/></g></g></g></g><g clip-path="url(#2c48957af5)"><g clip-path="url(#608b8d6d5a)"><g clip-path="url(#af639c2d85)"><g clip-path="url(#e95858bcd9)"><path fill="#f4b536" d="M 218.265625 57.296875 C 225.574219 52.667969 232.875 47.992188 240.066406 43.183594 C 241.371094 42.3125 240.015625 40.027344 238.628906 40.816406 C 231.007812 45.1875 223.78125 50.167969 216.550781 55.148438 C 215.9375 55.574219 215.894531 56.527344 216.339844 57.082031 C 216.835938 57.707031 217.628906 57.6875 218.265625 57.296875 Z M 218.265625 57.296875 " fill-opacity="1" fill-rule="nonzero"/></g></g></g></g><g clip-path="url(#a5e97983c5)"><g clip-path="url(#e47609a241)"><g clip-path="url(#946420a141)"><g clip-path="url(#95c76662b6)"><path fill="#f4b536" d="M 207.804688 46.207031 C 211.109375 40.195312 214.214844 34.070312 217.375 27.984375 C 218.246094 26.304688 219.015625 24.59375 219.71875 22.820312 C 220.238281 21.503906 218.347656 20.386719 217.53125 21.59375 C 215.730469 24.246094 214.304688 27.046875 212.871094 29.90625 C 211.476562 32.679688 210.082031 35.4375 208.703125 38.214844 C 207.550781 40.535156 206.402344 42.859375 205.222656 45.175781 C 204.878906 45.839844 205.347656 46.714844 205.992188 46.980469 C 206.777344 47.289062 207.433594 46.871094 207.804688 46.207031 Z M 207.804688 46.207031 " fill-opacity="1" fill-rule="nonzero"/></g></g></g></g><g clip-path="url(#2092895d26)"><g clip-path="url(#a3bd8aa2db)"><g clip-path="url(#819d854c13)"><g clip-path="url(#8bcbb0d44e)"><path fill="#f4b536" d="M 192.78125 42.699219 C 193.125 38.777344 193.496094 34.859375 193.898438 30.960938 C 194.09375 29.058594 194.289062 27.152344 194.46875 25.246094 C 194.644531 23.234375 194.71875 21.226562 194.835938 19.207031 C 194.925781 17.605469 192.683594 17.371094 192.394531 18.921875 C 192.015625 20.851562 191.625 22.796875 191.378906 24.738281 C 191.121094 26.683594 190.917969 28.648438 190.734375 30.597656 C 190.359375 34.515625 190.074219 38.441406 189.835938 42.355469 C 189.714844 44.269531 192.613281 44.621094 192.78125 42.699219 Z M 192.78125 42.699219 " fill-opacity="1" fill-rule="nonzero"/></g></g></g></g><g clip-path="url(#1b51f75ad6)"><g clip-path="url(#41f0e2b42c)"><g clip-path="url(#966057587b)"><g clip-path="url(#658535dcaa)"><path fill="#f4b536" d="M 224.710938 72.914062 C 229.273438 72.371094 233.773438 71.851562 238.25 70.855469 C 239.183594 70.644531 239.300781 69.015625 238.210938 69.027344 C 233.523438 69.105469 228.929688 69.660156 224.292969 70.222656 C 222.554688 70.433594 222.988281 73.113281 224.710938 72.914062 Z M 224.710938 72.914062 " fill-opacity="1" fill-rule="nonzero"/></g></g></g></g><g clip-path="url(#aed51d5761)"><g clip-path="url(#81fb928a51)"><g clip-path="url(#cd43633895)"><g clip-path="url(#c279a26330)"><path fill="#f4b536" d="M 178.90625 42.121094 C 177.449219 37.777344 176.015625 33.46875 174.121094 29.285156 C 173.703125 28.375 172.140625 28.753906 172.378906 29.808594 C 173.425781 34.390625 174.921875 38.785156 176.429688 43.222656 C 176.664062 43.917969 177.589844 44.1875 178.214844 43.910156 C 178.9375 43.589844 179.140625 42.820312 178.90625 42.121094 Z M 178.90625 42.121094 " fill-opacity="1" fill-rule="nonzero"/></g></g></g></g><g fill="#df9f10" fill-opacity="1"><g transform="translate(40.223767, 85.696032)"><g><path d="M 19.765625 -6.734375 C 20.910156 -6.734375 22.015625 -6.90625 23.078125 -7.25 C 24.148438 -7.59375 24.9375 -7.921875 25.4375 -8.234375 L 26.1875 -8.75 L 29.359375 -2.421875 C 29.253906 -2.335938 29.109375 -2.226562 28.921875 -2.09375 C 28.742188 -1.96875 28.316406 -1.722656 27.640625 -1.359375 C 26.960938 -1.003906 26.238281 -0.695312 25.46875 -0.4375 C 24.707031 -0.175781 23.707031 0.0546875 22.46875 0.265625 C 21.226562 0.484375 19.945312 0.59375 18.625 0.59375 C 15.582031 0.59375 12.703125 -0.148438 9.984375 -1.640625 C 7.265625 -3.140625 5.070312 -5.195312 3.40625 -7.8125 C 1.738281 -10.425781 0.90625 -13.25 0.90625 -16.28125 C 0.90625 -18.582031 1.394531 -20.789062 2.375 -22.90625 C 3.351562 -25.019531 4.65625 -26.828125 6.28125 -28.328125 C 7.90625 -29.835938 9.800781 -31.039062 11.96875 -31.9375 C 14.132812 -32.832031 16.351562 -33.28125 18.625 -33.28125 C 20.738281 -33.28125 22.6875 -33.03125 24.46875 -32.53125 C 26.25 -32.03125 27.507812 -31.53125 28.25 -31.03125 L 29.359375 -30.28125 L 26.1875 -23.9375 C 26.007812 -24.09375 25.734375 -24.28125 25.359375 -24.5 C 24.992188 -24.726562 24.253906 -25.023438 23.140625 -25.390625 C 22.035156 -25.765625 20.910156 -25.953125 19.765625 -25.953125 C 17.972656 -25.953125 16.363281 -25.660156 14.9375 -25.078125 C 13.507812 -24.492188 12.378906 -23.726562 11.546875 -22.78125 C 10.710938 -21.832031 10.078125 -20.804688 9.640625 -19.703125 C 9.210938 -18.609375 9 -17.492188 9 -16.359375 C 9 -13.878906 9.925781 -11.65625 11.78125 -9.6875 C 13.644531 -7.71875 16.304688 -6.734375 19.765625 -6.734375 Z M 19.765625 -6.734375 "/></g></g></g><g fill="#df9f10" fill-opacity="1"><g transform="translate(70.064696, 85.696032)"><g><path d="M 9.828125 -32.6875 L 9.828125 -6.53125 L 21.078125 -6.53125 L 21.078125 0 L 2.375 0 L 2.375 -32.6875 Z M 9.828125 -32.6875 "/></g></g></g><g fill="#df9f10" fill-opacity="1"><g transform="translate(92.455303, 85.696032)"><g><path d="M 9.828125 -32.6875 L 9.828125 0 L 2.375 0 L 2.375 -32.6875 Z M 9.828125 -32.6875 "/></g></g></g><g fill="#df9f10" fill-opacity="1"><g transform="translate(104.661155, 85.696032)"><g><path d="M 29.40625 0 L 27.859375 -19.375 L 27.65625 -19.375 L 20.96875 -0.203125 L 16.53125 -0.203125 L 9.828125 -19.375 L 9.625 -19.375 L 8.078125 0 L 0.640625 0 L 3.5625 -32.6875 L 11.484375 -32.6875 L 18.75 -13.828125 L 26 -32.6875 L 33.921875 -32.6875 L 36.84375 0 Z M 29.40625 0 "/></g></g></g><g fill="#df9f10" fill-opacity="1"><g transform="translate(142.150557, 85.696032)"><g><path d="M 18.984375 -32.6875 L 32.171875 0 L 24.171875 0 L 21.75 -6.53125 L 9.3125 -6.53125 L 6.890625 0 L -1.109375 0 L 12.078125 -32.6875 Z M 19.21875 -13.078125 L 15.578125 -22.59375 L 15.5 -22.59375 L 11.84375 -13.078125 Z M 19.21875 -13.078125 "/></g></g></g><g fill="#ffffff" fill-opacity="1"><g transform="translate(164.23179, 112.856044)"><g><path d="M 20.03125 -21.71875 C 20.03125 -19.96875 19.5 -18.476562 18.4375 -17.25 C 17.382812 -16.03125 15.898438 -15.191406 13.984375 -14.734375 L 13.984375 -14.625 C 16.242188 -14.34375 17.953125 -13.65625 19.109375 -12.5625 C 20.273438 -11.46875 20.859375 -10 20.859375 -8.15625 C 20.859375 -5.457031 19.878906 -3.359375 17.921875 -1.859375 C 15.972656 -0.367188 13.1875 0.375 9.5625 0.375 C 6.53125 0.375 3.84375 -0.125 1.5 -1.125 L 1.5 -6.15625 C 2.582031 -5.613281 3.769531 -5.171875 5.0625 -4.828125 C 6.363281 -4.484375 7.65625 -4.3125 8.9375 -4.3125 C 10.882812 -4.3125 12.320312 -4.640625 13.25 -5.296875 C 14.1875 -5.960938 14.65625 -7.03125 14.65625 -8.5 C 14.65625 -9.8125 14.117188 -10.738281 13.046875 -11.28125 C 11.972656 -11.832031 10.265625 -12.109375 7.921875 -12.109375 L 5.796875 -12.109375 L 5.796875 -16.640625 L 7.953125 -16.640625 C 10.128906 -16.640625 11.71875 -16.921875 12.71875 -17.484375 C 13.71875 -18.054688 14.21875 -19.035156 14.21875 -20.421875 C 14.21875 -22.535156 12.890625 -23.59375 10.234375 -23.59375 C 9.316406 -23.59375 8.382812 -23.4375 7.4375 -23.125 C 6.488281 -22.820312 5.429688 -22.296875 4.265625 -21.546875 L 1.53125 -25.625 C 4.082031 -27.457031 7.125 -28.375 10.65625 -28.375 C 13.550781 -28.375 15.835938 -27.785156 17.515625 -26.609375 C 19.191406 -25.441406 20.03125 -23.8125 20.03125 -21.71875 Z M 20.03125 -21.71875 "/></g></g></g><g fill="#ffffff" fill-opacity="1"><g transform="translate(186.60265, 112.856044)"><g><path d="M 1.375 -11.875 C 1.375 -17.414062 2.546875 -21.535156 4.890625 -24.234375 C 7.234375 -26.941406 10.738281 -28.296875 15.40625 -28.296875 C 17 -28.296875 18.25 -28.203125 19.15625 -28.015625 L 19.15625 -23.28125 C 18.019531 -23.539062 16.894531 -23.671875 15.78125 -23.671875 C 13.757812 -23.671875 12.101562 -23.363281 10.8125 -22.75 C 9.53125 -22.132812 8.570312 -21.226562 7.9375 -20.03125 C 7.300781 -18.832031 6.925781 -17.128906 6.8125 -14.921875 L 7.0625 -14.921875 C 8.320312 -17.085938 10.34375 -18.171875 13.125 -18.171875 C 15.625 -18.171875 17.582031 -17.382812 19 -15.8125 C 20.414062 -14.25 21.125 -12.082031 21.125 -9.3125 C 21.125 -6.332031 20.28125 -3.972656 18.59375 -2.234375 C 16.914062 -0.492188 14.582031 0.375 11.59375 0.375 C 9.53125 0.375 7.726562 -0.0976562 6.1875 -1.046875 C 4.65625 -2.003906 3.46875 -3.398438 2.625 -5.234375 C 1.789062 -7.078125 1.375 -9.289062 1.375 -11.875 Z M 11.484375 -4.34375 C 12.742188 -4.34375 13.710938 -4.765625 14.390625 -5.609375 C 15.066406 -6.460938 15.40625 -7.671875 15.40625 -9.234375 C 15.40625 -10.609375 15.085938 -11.6875 14.453125 -12.46875 C 13.828125 -13.25 12.875 -13.640625 11.59375 -13.640625 C 10.394531 -13.640625 9.367188 -13.25 8.515625 -12.46875 C 7.671875 -11.695312 7.25 -10.796875 7.25 -9.765625 C 7.25 -8.242188 7.644531 -6.957031 8.4375 -5.90625 C 9.238281 -4.863281 10.253906 -4.34375 11.484375 -4.34375 Z M 11.484375 -4.34375 "/></g></g></g><g fill="#ffffff" fill-opacity="1"><g transform="translate(208.97351, 112.856044)"><g><path d="M 20.96875 -13.984375 C 20.96875 -9.097656 20.164062 -5.484375 18.5625 -3.140625 C 16.96875 -0.796875 14.503906 0.375 11.171875 0.375 C 7.941406 0.375 5.507812 -0.832031 3.875 -3.25 C 2.238281 -5.675781 1.421875 -9.253906 1.421875 -13.984375 C 1.421875 -18.921875 2.21875 -22.5625 3.8125 -24.90625 C 5.40625 -27.25 7.859375 -28.421875 11.171875 -28.421875 C 14.398438 -28.421875 16.835938 -27.191406 18.484375 -24.734375 C 20.140625 -22.285156 20.96875 -18.703125 20.96875 -13.984375 Z M 7.296875 -13.984375 C 7.296875 -10.554688 7.585938 -8.097656 8.171875 -6.609375 C 8.765625 -5.117188 9.765625 -4.375 11.171875 -4.375 C 12.546875 -4.375 13.539062 -5.125 14.15625 -6.625 C 14.769531 -8.132812 15.078125 -10.585938 15.078125 -13.984375 C 15.078125 -17.421875 14.765625 -19.882812 14.140625 -21.375 C 13.523438 -22.875 12.535156 -23.625 11.171875 -23.625 C 9.785156 -23.625 8.789062 -22.875 8.1875 -21.375 C 7.59375 -19.882812 7.296875 -17.421875 7.296875 -13.984375 Z M 7.296875 -13.984375 "/></g></g></g></svg>